# xmcd CD database file
#
# Track frame offsets:
#	150
#	23347
#	52140
#
# Disc length: 1150 seconds
#
# Revision: 0
# Processed by: cddbd v1.5.1PL0 Copyright (c) Steve Scherf et al.
# Submitted via: CDex 1.51
#
DISCID=1b047c03
DTITLE=高橋徹也 - 真夜中のドライブイン
DYEAR=1997
DGENRE=Rock
TTITLE0=真夜中のドライブイン
TTITLE1=人の噂。
TTITLE2=バタフライ ナイト(Weightless Mix)
EXTD=YEAR: 1997
EXTT0=
EXTT1=
EXTT2=
PLAYORDER=
